<?xml version="1.0" encoding="UTF-8"?>
<svg xmlns="http://www.w3.org/2000/svg" xmlns:xlink="http://www.w3.org/1999/xlink" width="229px" height="36px" viewBox="0 0 230 36" version="1.1">
<g id="surface1">
<path style=" stroke:none;fill-rule:nonzero;fill:rgb(0%,0%,0%);fill-opacity:1;" d="M 100.589844 3.484375 L 101.21875 1.898438 L 94.800781 1.898438 L 94.59375 2.746094 C 93.121094 8.023438 90.804688 15.097656 88.175781 22.277344 L 79.550781 3.378906 L 78.917969 1.898438 C 78.707031 1.371094 78.285156 1.054688 77.867188 1.054688 C 77.445312 1.054688 77.023438 1.371094 76.8125 1.792969 L 76.183594 3.273438 L 68.714844 21.957031 L 61.769531 1.898438 L 54.828125 1.898438 L 66.398438 32.726562 L 66.925781 34.207031 C 67.136719 34.628906 67.453125 34.945312 67.871094 34.945312 C 68.292969 34.945312 68.609375 34.734375 68.925781 34.3125 L 77.445312 14.042969 L 86.808594 34.3125 C 87.019531 34.734375 87.332031 34.945312 87.753906 34.945312 C 88.175781 34.945312 88.492188 34.734375 88.703125 34.207031 C 88.703125 34.207031 88.910156 33.675781 89.226562 32.832031 C 89.332031 32.621094 98.273438 8.972656 100.589844 3.484375 Z M 100.589844 3.484375 "/>
<path style=" stroke:none;fill-rule:nonzero;fill:rgb(0%,0%,0%);fill-opacity:1;" d="M 40.3125 29.136719 C 40.207031 26.921875 40.207031 24.28125 40.207031 19.636719 L 40.207031 19.53125 C 42.730469 19.53125 48.726562 19.636719 51.148438 19.742188 L 52.304688 19.847656 L 52.304688 14.359375 L 51.148438 14.359375 C 48.199219 14.464844 42.519531 14.570312 40.101562 14.570312 C 40.101562 10.980469 40.101562 8.867188 40.3125 6.757812 C 43.46875 6.757812 49.042969 6.96875 52.199219 7.179688 L 53.355469 7.285156 L 53.355469 1.898438 L 33.261719 1.898438 L 33.367188 3.0625 C 33.578125 6.652344 33.683594 10.136719 33.683594 15.203125 L 33.683594 21.007812 C 33.683594 26.078125 33.578125 29.347656 33.261719 32.832031 L 33.15625 33.992188 L 53.566406 33.992188 L 53.566406 28.398438 L 52.304688 28.503906 C 48.9375 29.03125 43.46875 29.136719 40.3125 29.136719 Z M 40.3125 29.136719 "/>
<path style=" stroke:none;fill-rule:nonzero;fill:rgb(0%,0%,0%);fill-opacity:1;" d="M 24.742188 3.167969 C 25.164062 7.390625 25.164062 10.558594 25.164062 14.992188 L 25.164062 22.066406 L 4.753906 2.429688 L 3.703125 1.476562 C 3.386719 1.054688 2.863281 0.949219 2.546875 1.160156 C 2.125 1.265625 1.914062 1.6875 1.914062 2.21875 L 1.914062 18.160156 C 1.914062 24.492188 1.808594 28.503906 1.496094 32.832031 L 1.390625 34.101562 L 8.015625 34.101562 L 7.910156 32.832031 C 7.492188 28.398438 7.492188 25.125 7.492188 19.636719 L 7.492188 13.933594 L 29.054688 34.628906 C 29.265625 34.839844 29.582031 34.945312 29.898438 34.945312 C 30.003906 34.945312 30.109375 34.945312 30.210938 34.839844 C 30.527344 34.734375 30.84375 34.3125 30.84375 33.886719 L 30.84375 15.519531 C 30.84375 11.085938 30.949219 7.074219 31.265625 3.167969 L 31.371094 2.007812 L 24.742188 2.007812 Z M 24.742188 3.167969 "/>
<path style=" stroke:none;fill-rule:nonzero;fill:rgb(0%,0%,0%);fill-opacity:1;" d="M 209.675781 16.46875 L 228.296875 2.007812 L 219.878906 2.007812 L 204.835938 14.464844 L 204.835938 14.042969 C 204.835938 10.347656 204.941406 6.96875 205.257812 3.167969 L 205.363281 2.007812 L 198 2.007812 L 198.105469 3.167969 C 198.316406 6.757812 198.417969 10.242188 198.417969 15.308594 L 198.417969 22.277344 C 198.417969 26.605469 198.417969 29.242188 198.105469 32.410156 L 197.789062 34.101562 L 205.363281 34.101562 L 205.257812 32.9375 C 204.941406 28.925781 204.835938 26.5 204.835938 22.171875 L 204.835938 20.269531 L 217.460938 32.9375 C 218.300781 33.78125 219.144531 34.207031 220.40625 34.101562 L 228.503906 34.101562 Z M 209.675781 16.46875 "/>
<path style=" stroke:none;fill-rule:nonzero;fill:rgb(0%,0%,0%);fill-opacity:1;" d="M 185.058594 20.375 C 189.898438 19.109375 192.738281 15.625 192.738281 10.769531 C 192.738281 7.390625 191.265625 1.792969 181.0625 1.792969 C 180.011719 1.792969 178.539062 1.792969 177.066406 1.898438 C 175.699219 1.898438 174.433594 2.007812 173.59375 2.007812 L 170.648438 2.007812 L 170.753906 3.167969 C 170.964844 6.757812 171.070312 10.453125 171.070312 15.414062 L 171.070312 18.6875 C 168.753906 19.003906 166.441406 19.320312 163.914062 19.636719 C 163.601562 19.636719 163.390625 19.742188 163.074219 19.742188 C 162.234375 17.839844 161.390625 16.046875 160.550781 14.148438 L 155.5 3.589844 L 154.765625 1.898438 C 154.554688 1.476562 154.238281 1.265625 153.816406 1.265625 C 153.394531 1.265625 153.082031 1.476562 152.871094 1.898438 L 152.132812 3.589844 L 141.507812 26.605469 C 140.351562 29.242188 139.195312 31.460938 138.5625 32.621094 L 137.722656 34.3125 L 144.246094 34.3125 L 144.453125 33.570312 C 144.769531 32.621094 145.191406 31.460938 145.613281 30.300781 C 145.613281 30.300781 146.136719 28.292969 148.03125 27.34375 C 149.292969 26.710938 151.082031 26.183594 152.976562 25.863281 C 154.238281 25.652344 156.445312 25.441406 158.339844 25.230469 L 162.128906 34.417969 L 169.910156 34.417969 L 169.175781 32.832031 C 167.703125 29.769531 166.441406 27.027344 165.285156 24.492188 C 167.28125 24.28125 169.175781 24.070312 171.070312 23.859375 C 171.070312 27.449219 170.964844 30.195312 170.648438 33.148438 L 170.542969 34.3125 L 177.90625 34.3125 L 177.800781 33.148438 C 177.589844 29.558594 177.378906 26.394531 177.277344 22.910156 C 177.800781 22.804688 178.222656 22.699219 178.75 22.59375 L 187.058594 33.042969 C 187.898438 34.207031 188.847656 34.417969 190.109375 34.3125 L 197.15625 34.3125 L 195.472656 32.410156 C 192.214844 28.609375 188.847656 24.808594 185.058594 20.375 Z M 150.976562 21.21875 C 150.449219 21.324219 149.925781 21.324219 149.398438 21.429688 L 152.976562 12.667969 L 155.921875 20.480469 C 154.34375 20.796875 152.660156 21.007812 150.976562 21.21875 Z M 182.007812 16.785156 C 181.0625 16.996094 179.90625 17.207031 178.539062 17.523438 C 178.117188 17.523438 177.695312 17.523438 177.589844 17.523438 L 177.589844 16.890625 C 177.589844 13.300781 177.589844 9.289062 177.695312 6.125 C 178.433594 6.019531 179.273438 6.019531 180.328125 6.019531 C 183.167969 6.019531 186.425781 6.863281 186.425781 10.875 C 186.425781 11.824219 186.324219 12.5625 186.21875 13.300781 C 185.375 15.203125 183.691406 16.152344 182.007812 16.785156 Z M 182.007812 16.785156 "/>
<path style=" stroke:none;fill-rule:nonzero;fill:rgb(0%,0%,0%);fill-opacity:1;" d="M 135.09375 22.699219 L 132.460938 4.433594 L 132.148438 2.113281 C 132.042969 1.476562 131.621094 1.160156 131.304688 1.160156 C 130.882812 1.054688 130.464844 1.371094 130.148438 1.792969 C 129.9375 2.324219 117.523438 24.28125 117.523438 24.28125 L 105.21875 3.273438 L 104.375 1.792969 C 104.164062 1.265625 103.742188 1.054688 103.21875 1.054688 C 102.796875 1.160156 102.480469 1.476562 102.375 2.007812 L 99.324219 20.796875 C 98.589844 25.757812 97.957031 29.03125 97.222656 32.726562 L 97.117188 34.101562 L 103.429688 34.101562 L 103.535156 33.042969 C 103.742188 29.980469 104.058594 26.710938 104.585938 21.851562 L 105.425781 15.835938 L 115.421875 33.570312 L 115.945312 34.523438 C 116.15625 34.839844 116.472656 35.050781 116.789062 35.050781 C 117.105469 35.050781 117.523438 34.839844 117.734375 34.523438 L 118.261719 33.570312 C 118.261719 33.570312 127.832031 16.257812 127.832031 16.257812 L 128.78125 24.597656 C 129.203125 27.554688 129.410156 30.511719 129.515625 33.148438 L 129.515625 34.207031 L 136.878906 34.207031 L 136.671875 32.9375 C 136.039062 29.347656 135.511719 25.863281 135.09375 22.699219 Z M 135.09375 22.699219 "/>
</g>
</svg>
